<svg width="360" height="282" viewBox="0 0 360 282" fill="none" xmlns="http://www.w3.org/2000/svg">
<path d="M360 0V234.789C282.323 264.098 178.553 282 64.5652 282C42.6273 282 21.0678 281.337 0 280.057L0 0H360Z" fill="url(#paint0_linear_101_2536)"/>
<mask id="mask0_101_2536" style="mask-type:alpha" maskUnits="userSpaceOnUse" x="0" y="0" width="360" height="282">
<path d="M360 0V234.789C282.323 264.098 178.553 282 64.5652 282C42.6273 282 21.0678 281.337 0 280.057L0 0H360Z" fill="url(#paint1_linear_101_2536)"/>
</mask>
<g mask="url(#mask0_101_2536)">
<ellipse cx="96.5" cy="109" rx="96.5" ry="109" transform="matrix(0 -1 -1 0 128 57)" fill="url(#paint2_linear_101_2536)"/>
<ellipse cx="188" cy="212" rx="188" ry="212" transform="matrix(0 -1 -1 0 604 559)" fill="url(#paint3_linear_101_2536)"/>
</g>
<defs>
<linearGradient id="paint0_linear_101_2536" x1="-41.5421" y1="261.947" x2="46.6333" y2="-149.919" gradientUnits="userSpaceOnUse">
<stop stop-color="#052FA5"/>
<stop offset="0.999844" stop-color="#3AA0EF"/>
</linearGradient>
<linearGradient id="paint1_linear_101_2536" x1="-41.5421" y1="261.947" x2="46.6333" y2="-149.919" gradientUnits="userSpaceOnUse">
<stop stop-color="#052FA5"/>
<stop offset="0.999844" stop-color="#3AA0EF"/>
</linearGradient>
<linearGradient id="paint2_linear_101_2536" x1="289.5" y1="109" x2="73.1072" y2="-82.5771" gradientUnits="userSpaceOnUse">
<stop offset="0.000156216" stop-color="#052FA5"/>
<stop offset="1" stop-color="#3AA0EF"/>
</linearGradient>
<linearGradient id="paint3_linear_101_2536" x1="375.464" y1="424" x2="-41.6735" y2="378.686" gradientUnits="userSpaceOnUse">
<stop stop-color="#D32739"/>
<stop offset="1" stop-color="#EF3A4D"/>
</linearGradient>
</defs>
</svg>
