<svg width="360" height="180" viewBox="0 0 360 180" fill="none" xmlns="http://www.w3.org/2000/svg">
            <path d="M360 0V132.789C282.323 162.098 178.553 180 64.5652 180C42.6273 180 21.0678 179.337 0 178.057L0 0H360Z" fill="url(#paint0_linear_103_2925)"/>
            <mask id="mask0_103_2925" style="mask-type:alpha" maskUnits="userSpaceOnUse" x="0" y="0" width="360" height="180">
            <path d="M360 0V132.789C282.323 162.098 178.553 180 64.5652 180C42.6273 180 21.0678 179.337 0 178.057L0 0H360Z" fill="url(#paint1_linear_103_2925)"/>
            </mask>
            <g mask="url(#mask0_103_2925)">
            <ellipse cx="96.5" cy="109" rx="96.5" ry="109" transform="matrix(0 -1 -1 0 128 43)" fill="url(#paint2_linear_103_2925)"/>
            <ellipse cx="188" cy="212" rx="188" ry="212" transform="matrix(0 -1 -1 0 604 457)" fill="url(#paint3_linear_103_2925)"/>
            </g>
            <defs>
            <linearGradient id="paint0_linear_103_2925" x1="-36" y1="192" x2="48.0089" y2="-163.699" gradientUnits="userSpaceOnUse">
            <stop stop-color="#052FA5"/>
            <stop offset="0.999844" stop-color="#3AA0EF"/>
            </linearGradient>
            <linearGradient id="paint1_linear_103_2925" x1="-41.5421" y1="159.947" x2="46.6332" y2="-251.919" gradientUnits="userSpaceOnUse">
            <stop stop-color="#052FA5"/>
            <stop offset="0.999844" stop-color="#3AA0EF"/>
            </linearGradient>
            <linearGradient id="paint2_linear_103_2925" x1="289.5" y1="109" x2="73.1072" y2="-82.5771" gradientUnits="userSpaceOnUse">
            <stop offset="0.000156216" stop-color="#052FA5"/>
            <stop offset="1" stop-color="#3AA0EF"/>
            </linearGradient>
            <linearGradient id="paint3_linear_103_2925" x1="375.464" y1="424" x2="-41.6735" y2="378.686" gradientUnits="userSpaceOnUse">
            <stop stop-color="#D32739"/>
            <stop offset="1" stop-color="#EF3A4D"/>
            </linearGradient>
            </defs>
            </svg>
            