<svg width="28" height="28" viewBox="0 0 28 28" fill="none" xmlns="http://www.w3.org/2000/svg">
<rect width="28" height="28" rx="14" fill="#E2F1FC"/>
<path d="M6.50002 13.1187H19.4417L16.4917 10.1687C16.1667 9.84375 16.1667 9.31875 16.4917 8.99375C16.8167 8.66875 17.3417 8.66875 17.6667 8.99375L22.0917 13.4104C22.4167 13.7354 22.4167 14.2604 22.0917 14.5854L17.675 19.0021C17.5084 19.1687 17.3 19.2437 17.0834 19.2437C16.8667 19.2437 16.6584 19.1604 16.4917 19.0021C16.1667 18.6771 16.1667 18.1521 16.4917 17.8271L19.5334 14.7854H6.50002C6.04169 14.7854 5.66669 14.4104 5.66669 13.9521C5.66669 13.4937 6.04169 13.1187 6.50002 13.1187Z" fill="#0060BA"/>
</svg>
