<svg width="50" height="46" viewBox="0 0 50 46" fill="none" xmlns="http://www.w3.org/2000/svg">
                <g clip-path="url(#clip0_474_1663)">
                <path d="M21.4959 34.1864C15.6375 34.1909 11.8218 31.3834 11.5818 31.2019L9.26692 29.1639L9.23301 29.1081L9.19214 29.0684C9.14454 29.0191 8.02778 27.8579 7.58143 27.2979L7.27979 26.9166L13.4277 15.1314L8.89647 10.5977L9.37442 10.0691C12.5987 6.49812 15.9799 3.85066 19.4274 2.20333C22.2822 0.839256 25.1969 0.146423 28.0956 0.144536C34.0515 0.140134 37.8638 3.01509 38.0232 3.13715C38.8791 3.76871 40.1834 4.81606 40.4119 5.17519L40.4414 5.22271L40.4836 5.26372C41.1434 5.9205 41.7082 6.53941 42.1617 7.10822L42.4634 7.49014L36.2991 19.3057L40.6912 23.735L40.2175 24.261C36.9932 27.8319 33.6114 30.4795 30.1642 32.1255C27.3097 33.4916 24.3936 34.1839 21.4959 34.1864Z" fill="white"/>
                <path d="M9.94409 10.5718L17.9194 18.5539C17.9194 18.5539 20.5818 13.1528 25.4942 8.87136C28.5879 6.17458 32.5727 3.92273 37.3463 3.74267C37.415 3.73883 37.4853 3.73513 37.5553 3.7338C37.5553 3.7338 24.8926 -5.98802 9.94409 10.5718Z" fill="url(#paint0_linear_474_1663)"/>
                <path d="M31.6749 15.7227C31.6749 15.7227 29.0076 21.1783 24.0973 25.461C21.0042 28.1577 17.018 30.4089 12.2452 30.589C12.1744 30.5921 12.1066 30.5972 12.0362 30.5985C12.0362 30.5985 24.6999 40.3189 39.6473 23.7605L31.6749 15.7227Z" fill="url(#paint1_linear_474_1663)"/>
                <path d="M38.5054 4.46101C31.4924 4.46604 27.8603 7.99665 26.7369 9.19136C28.6949 10.0428 32.3452 12.4412 36.079 18.0793L41.5621 7.57233C40.6248 6.39467 39.3365 5.18228 38.5054 4.46101Z" fill="url(#paint2_linear_474_1663)"/>
                <path d="M22.855 25.3032C20.8701 24.4069 17.3084 21.8264 13.6643 16.3242L8.18207 26.8298C9.09829 27.9817 10.477 29.2953 11.5297 30.1746C16.0499 29.3856 19.087 28.7762 22.855 25.3032Z" fill="url(#paint3_linear_474_1663)"/>
                <path d="M42.2917 41.9768C42.2308 42.0961 42.1727 42.2678 42.1206 42.4864C42.0105 42.8438 41.9274 43.2316 41.9196 43.5549C41.8999 44.2435 42.059 44.7527 42.403 45.1115C42.8663 45.5959 43.7062 45.8334 44.9442 45.8588C47.4253 45.9095 48.9688 44.8352 49.5592 42.6513C49.6526 42.2821 49.7051 41.9452 49.7147 41.6461C49.7307 41.0486 49.5674 40.5707 49.2296 40.2261C48.7496 39.7342 47.9149 39.4688 46.707 39.4688C45.5937 39.4688 44.6295 39.6913 43.881 40.0993C43.2731 40.4293 42.8381 40.8444 42.5864 41.3351H44.5795C44.6933 41.1478 44.8694 40.9774 45.1026 40.8241C45.4391 40.6033 45.8291 40.4908 46.2632 40.4908C46.7676 40.4908 47.1441 40.615 47.3826 40.8576C47.5961 41.0756 47.6985 41.3922 47.6878 41.7942C47.6796 42.0554 47.6262 42.3614 47.5291 42.7037C47.3012 43.541 46.9764 44.1319 46.5649 44.4616C46.2421 44.728 45.7954 44.8633 45.2434 44.8633C44.7391 44.8633 44.3723 44.7478 44.1507 44.5216C43.975 44.3418 43.8904 44.0935 43.899 43.7802C43.9025 43.6471 43.9671 43.3846 44.018 43.1741L44.0849 42.9496H44.654L44.912 41.9768H42.2917Z" fill="white"/>
                <path d="M0 45.7846H1.76666L3.45953 39.5781H1.68205L0 45.7846Z" fill="white"/>
                <path d="M21.5309 39.5742C20.8038 39.5742 20.1528 39.8543 19.5953 40.4057C19.0108 40.9871 18.579 41.7919 18.3113 42.8005C18.2458 43.0161 18.2024 43.2082 18.1774 43.3859C18.1519 43.5675 18.136 43.7437 18.132 43.9086C18.1171 44.5427 18.2654 45.0247 18.5752 45.3408C18.9098 45.6814 19.4392 45.7966 20.1653 45.7814H21.4316L21.703 44.7539C21.144 44.7466 20.7345 44.6161 20.4877 44.364C20.291 44.1623 20.1947 43.8835 20.204 43.537C20.2061 43.4275 20.2194 43.3068 20.2471 43.1699C20.2735 43.0429 20.3018 42.9025 20.335 42.7537C20.5799 41.7971 20.9462 41.1629 21.4225 40.8651C21.4642 40.8403 21.5075 40.8268 21.553 40.8268C21.6407 40.8268 21.7003 40.8746 21.7117 40.8832L22.2289 41.3344C22.3396 41.4379 22.5009 41.5501 22.5576 41.5501C22.6588 41.5501 22.8334 41.4479 22.8863 41.4138L24.1489 40.6527L22.765 45.7841H24.5599L26.2264 39.5751H24.1802L23.3551 40.0952C23.3198 40.1186 23.1274 40.2432 23.0068 40.256L22.9885 40.2566C22.958 40.2566 22.9097 40.2483 22.8521 40.2111L22.2496 39.7636C22.243 39.7584 22.0975 39.6388 21.889 39.5984C21.7713 39.5778 21.6536 39.5752 21.6205 39.5752H21.6077C21.5815 39.5743 21.5563 39.5742 21.5309 39.5742Z" fill="white"/>
                <path d="M11.8481 39.5781L10.8862 43.0994C10.7601 43.5199 10.6882 43.8974 10.6654 44.2531C10.63 44.7969 10.7334 45.1895 10.9806 45.4517C11.2385 45.7257 11.6619 45.8588 12.2556 45.8588C13.242 45.8588 14.0767 45.4968 14.7538 44.7803L15.0353 44.485L14.6542 45.7846H16.4213C16.5189 45.4638 16.7755 44.5326 17.0684 43.4674L18.136 39.5782H16.3482L15.4362 42.7354C15.3307 43.0324 15.2761 43.1332 15.25 43.1821C15.2462 43.1877 15.2431 43.1917 15.2412 43.1968L15.2341 43.2128C14.7633 44.0857 14.0977 44.607 13.4546 44.607C13.1557 44.607 12.9125 44.5171 12.7493 44.3435C12.608 44.1941 12.5384 43.9855 12.5534 43.759C12.5732 43.4648 12.6635 43.098 12.7149 42.9048L13.6252 39.5782L11.8481 39.5781Z" fill="white"/>
                <path d="M38.0199 38.41L43.1958 38.4204L43.3806 37.6583L39.8332 37.6496L40.1581 36.4883H39.6233C38.5311 36.5297 37.9805 36.6433 37.8948 36.6628L37.7448 37.1775L38.3792 37.1727L38.0199 38.41Z" fill="white"/>
                <path d="M31.705 40.9292L31.83 40.9327L30.5204 45.7846H32.4153L34.0903 39.5781H30.9004C29.8048 39.5781 28.558 39.636 27.5988 40.4699C27.0156 40.9773 26.6495 41.6406 26.3346 42.7625C26.2676 42.9701 26.2214 43.1639 26.1953 43.3439C26.1641 43.5417 26.1561 43.7848 26.1531 43.9129C26.1374 44.5241 26.2837 44.9914 26.5896 45.3046C26.9404 45.6621 27.5321 45.8008 28.3171 45.7846L29.4059 45.7818L29.7145 44.7349C29.0886 44.7261 28.6071 44.5676 28.3213 44.2752C28.115 44.0667 28.0165 43.7986 28.0246 43.4803C28.0281 43.3716 28.0423 43.252 28.0706 43.1161C28.0978 42.9881 28.1276 42.8498 28.163 42.7011C28.3005 42.1935 28.6641 41.298 29.5539 40.9875C29.5636 40.9846 29.6941 40.9395 29.7836 40.9267L31.705 40.9292Z" fill="white"/>
                <path d="M26.5275 38.4068L26.8321 37.2931L25.0665 37.1992C22.9976 37.2849 21.0218 37.4475 20.6382 37.4752L20.3913 38.4083V38.4101L26.5275 38.4068Z" fill="white"/>
                <path d="M7.34763 44.4452C7.30157 44.5537 7.19554 44.6274 7.07154 44.6274C6.98167 44.6274 6.90043 44.5875 6.84581 44.5242L6.83345 44.5036C6.80354 44.4644 6.77721 44.419 6.75361 44.3697C6.56951 43.9774 5.62527 41.5078 5.42853 40.9699H3.65717L5.25805 45.2494C5.29084 45.3047 5.42776 45.7846 5.9656 45.7846H8.79699L10.4788 39.5781H7.76217L7.51214 40.5176H8.41327L7.34945 44.4335L7.34763 44.4452Z" fill="white"/>
                <path d="M10.8793 38.4068L11.185 37.2931L9.41903 37.1992C7.34947 37.2849 5.37385 37.4475 4.99013 37.4752L4.74304 38.4083V38.4101L10.8793 38.4068Z" fill="white"/>
                <path d="M41.3162 40.1166C40.8975 39.6885 40.0546 39.4805 38.7371 39.4805C37.6159 39.4805 36.6999 39.6612 36.014 40.0183C35.3838 40.3468 34.9751 40.7803 34.7775 41.3356H36.8078C36.9175 41.0503 37.1238 40.8332 37.445 40.6655C37.7431 40.5206 38.0837 40.4483 38.4634 40.4483C38.9994 40.4483 39.3566 40.5471 39.5546 40.7499C39.6753 40.8723 39.733 41.029 39.7276 41.2174C39.7251 41.3029 39.7132 41.3708 39.695 41.4254L39.6373 41.6372C39.633 41.6576 39.6205 41.6982 39.5898 41.7972C39.5723 41.8564 39.556 41.9113 39.5534 41.9212L39.5502 41.9806H39.248L36.9939 41.9846C36.97 41.9846 36.9453 41.9835 36.9219 41.9835C36.5234 41.9835 36.1558 42.0342 35.8285 42.1308C35.4845 42.2335 35.1785 42.3765 34.921 42.5538C34.6656 42.7323 34.4503 42.944 34.2839 43.1814C34.1165 43.4162 34.0006 43.6644 33.9409 43.9174C33.7772 44.5728 33.8788 45.0554 34.2506 45.3932C34.5804 45.6933 35.0665 45.7823 36.5257 45.7812H36.8056C36.8056 45.7812 37.1004 44.8162 37.1004 44.8153C37.0947 44.8344 36.7185 44.8128 36.6827 44.8099C36.5416 44.8021 36.4029 44.7796 36.2753 44.7165C35.9592 44.5614 35.8555 44.2196 35.934 43.8849C35.987 43.6824 36.122 43.5055 36.3355 43.356C36.5406 43.2128 36.8014 43.1401 37.1096 43.1401H37.1379L39.2479 43.1466L38.5267 45.7811H40.3891L41.573 41.3559C41.5887 41.2811 41.6006 41.2169 41.6083 41.1616C41.618 41.0985 41.6234 41.0392 41.6234 40.9825C41.6349 40.6224 41.5338 40.3406 41.3162 40.1166Z" fill="white"/>
                <path d="M49.2616 45.4466C49.262 45.4768 49.2554 45.5034 49.2422 45.5268C49.2285 45.5499 49.2101 45.5697 49.187 45.5857C49.1639 45.6013 49.1376 45.6132 49.1071 45.6215C49.077 45.6296 49.0456 45.6342 49.0127 45.6342C48.9793 45.6346 48.9468 45.631 48.9153 45.6215C48.8841 45.6129 48.856 45.5992 48.8316 45.5807C48.8075 45.5623 48.788 45.5393 48.7732 45.5107C48.7586 45.4825 48.7516 45.4492 48.7516 45.4109L48.8315 45.41C48.8311 45.4355 48.8361 45.4574 48.8457 45.4763C48.8561 45.4954 48.8693 45.5115 48.8859 45.5238C48.9029 45.5364 48.922 45.5463 48.9439 45.5523C48.9656 45.559 48.9877 45.5622 49.0104 45.5617C49.0352 45.5615 49.0575 45.5588 49.0784 45.5543C49.0986 45.5496 49.1164 45.5426 49.1309 45.5333C49.1463 45.5239 49.1574 45.5121 49.1661 45.4978C49.1742 45.4835 49.1784 45.4663 49.1781 45.4463C49.1779 45.4249 49.1731 45.4075 49.1646 45.3943C49.1553 45.3808 49.1427 45.3703 49.1266 45.3618C49.1097 45.3532 49.0901 45.3464 49.0663 45.3404C49.043 45.3348 49.0162 45.3283 48.9868 45.322C48.9546 45.3144 48.9249 45.3068 48.8983 45.2994C48.8715 45.2917 48.8485 45.2814 48.8294 45.2687C48.8103 45.2558 48.7955 45.2391 48.7846 45.2187C48.7736 45.1982 48.768 45.1711 48.7677 45.1371C48.7674 45.1093 48.7731 45.0842 48.7856 45.0624C48.798 45.0408 48.8147 45.0225 48.8351 45.0074C48.8564 44.9928 48.8806 44.9811 48.9081 44.9731C48.9353 44.9652 48.9644 44.9615 48.9947 44.961C49.0366 44.9605 49.0713 44.9652 49.1004 44.975C49.1288 44.9856 49.1525 44.9993 49.1715 45.0174C49.1896 45.0354 49.2035 45.0568 49.2131 45.0815C49.2226 45.1064 49.2281 45.1331 49.2306 45.1612L49.1521 45.1622C49.15 45.1426 49.145 45.125 49.1376 45.1086C49.1302 45.0922 49.12 45.0779 49.1075 45.0663C49.0949 45.0545 49.0795 45.0459 49.0615 45.0393C49.043 45.0329 49.0231 45.03 48.9999 45.0305C48.9787 45.0305 48.9591 45.0329 48.941 45.0374C48.9232 45.0423 48.9073 45.0488 48.8945 45.0578C48.8814 45.0666 48.8711 45.0778 48.8636 45.0908C48.8565 45.1036 48.8525 45.1187 48.853 45.1361C48.8532 45.156 48.8561 45.1719 48.8619 45.183C48.8676 45.1941 48.8767 45.2033 48.8896 45.2106C48.9023 45.2174 48.9181 45.2232 48.9379 45.2281C48.9577 45.2332 48.9815 45.2389 49.0093 45.2463C49.0296 45.2514 49.0497 45.256 49.0697 45.2603C49.0899 45.2648 49.1095 45.27 49.1281 45.2761C49.1467 45.2818 49.164 45.2893 49.1803 45.2975C49.1963 45.3063 49.2104 45.317 49.2228 45.33C49.2344 45.3432 49.2439 45.3594 49.2514 45.3783C49.2578 45.397 49.2611 45.4199 49.2616 45.4466Z" fill="white"/>
                <path d="M49.9134 45.0647L49.7198 45.6081L49.648 45.6088L49.4404 45.0656L49.4478 45.6115L49.3678 45.6129L49.3597 44.969L49.4756 44.9676L49.681 45.5059L49.8748 44.9623L49.9917 44.9609L50 45.6049L49.9201 45.6058L49.9134 45.0647Z" fill="white"/>
                </g>
                <defs>
                <linearGradient id="paint0_linear_474_1663" x1="9.94409" y1="9.72608" x2="37.5553" y2="9.72608" gradientUnits="userSpaceOnUse">
                <stop stop-color="#EF4137"/>
                <stop offset="1" stop-color="#B5202C"/>
                </linearGradient>
                <linearGradient id="paint1_linear_474_1663" x1="12.0363" y1="24.5781" x2="39.6473" y2="24.5781" gradientUnits="userSpaceOnUse">
                <stop stop-color="#EF4137"/>
                <stop offset="1" stop-color="#B5202C"/>
                </linearGradient>
                <linearGradient id="paint2_linear_474_1663" x1="26.7369" y1="11.2702" x2="41.5621" y2="11.2702" gradientUnits="userSpaceOnUse">
                <stop stop-color="#2A3B8F"/>
                <stop offset="1" stop-color="#1D76BB"/>
                </linearGradient>
                <linearGradient id="paint3_linear_474_1663" x1="15.5185" y1="30.1745" x2="15.5185" y2="16.3241" gradientUnits="userSpaceOnUse">
                <stop stop-color="#2A3B8F"/>
                <stop offset="1" stop-color="#1D76BB"/>
                </linearGradient>
                <clipPath id="clip0_474_1663">
                <rect width="50" height="45.7143" fill="white" transform="translate(0 0.144531)"/>
                </clipPath>
                </defs>
                </svg>