<svg width="14" height="15" viewBox="0 0 14 15" fill="none" xmlns="http://www.w3.org/2000/svg">
<path d="M11.7134 2.78536C10.4534 1.52536 8.78004 0.832031 7.00004 0.832031C5.22004 0.832031 3.54671 1.52536 2.28671 2.78536C1.02671 4.04536 0.333374 5.7187 0.333374 7.4987C0.333374 9.2787 1.02671 10.952 2.28671 12.212C3.54671 13.472 5.22004 14.1654 7.00004 14.1654C8.78004 14.1654 10.4534 13.472 11.7134 12.212C12.9734 10.952 13.6667 9.2787 13.6667 7.4987C13.6667 5.7187 12.9734 4.04536 11.7134 2.78536ZM10.36 5.65203L6.54671 10.5187C6.43337 10.6654 6.28004 10.792 6.10671 10.8787C5.94671 10.9587 5.76004 10.9987 5.58004 10.9987C5.56671 10.9987 5.55337 10.9987 5.54671 10.9987C5.35337 10.9987 5.16004 10.9387 4.99337 10.8454C4.82004 10.752 4.67337 10.612 4.56671 10.452L3.26671 8.61203C3.05337 8.31203 3.12671 7.89203 3.42671 7.68536C3.72671 7.47203 4.14671 7.54537 4.35337 7.84537L5.58671 9.59203L9.32004 4.83203C9.54671 4.5387 9.96671 4.49203 10.2534 4.7187C10.54 4.94536 10.5934 5.36536 10.3667 5.65203H10.36Z" fill="url(#paint0_linear_474_2472)"/>
<defs>
<linearGradient id="paint0_linear_474_2472" x1="0.314368" y1="0.832031" x2="15.1649" y2="2.31563" gradientUnits="userSpaceOnUse">
<stop stop-color="#0065BE"/>
<stop offset="1" stop-color="#00D9E0"/>
</linearGradient>
</defs>
</svg>
