<svg width="18" height="18" viewBox="0 0 18 18" fill="none" xmlns="http://www.w3.org/2000/svg">
            <path d="M10.4101 8.99859L17.7001 1.70859C18.0901 1.31859 18.0901 0.688594 17.7001 0.298594C17.3101 -0.0914062 16.6801 -0.0914062 16.2901 0.298594L9.00006 7.58859L1.71006 0.288594C1.32006 -0.101406 0.680059 -0.101406 0.290059 0.288594C-0.0999414 0.678594 -0.0999414 1.31859 0.290059 1.70859L7.58006 8.99859L0.290059 16.2886C-0.0999414 16.6786 -0.0999414 17.3086 0.290059 17.6986C0.490059 17.8986 0.740059 17.9886 1.00006 17.9886C1.26006 17.9886 1.51006 17.8886 1.71006 17.6986L9.00006 10.4086L16.2901 17.6986C16.4901 17.8986 16.7401 17.9886 17.0001 17.9886C17.2601 17.9886 17.5101 17.8886 17.7101 17.6986C18.1001 17.3086 18.1001 16.6786 17.7101 16.2886L10.4201 8.99859H10.4101Z" fill="#0060BA"/>
            </svg>