<svg width="21" height="20" viewBox="0 0 21 20" fill="none" xmlns="http://www.w3.org/2000/svg">
            <path d="M17.1699 11.68C16.1999 10.72 14.6299 10.72 13.6699 11.68C13.5499 11.8 13.4099 11.82 13.3399 11.82C13.2699 11.82 13.1199 11.8 12.9999 11.68L8.8299 7.51C8.6399 7.32 8.6399 7.02 8.8299 6.84C9.7999 5.88 9.7999 4.31 8.8299 3.34L6.2099 0.72C5.2499 -0.24 3.6799 -0.24 2.7099 0.72L2.0899 1.34C0.279902 3.15 -0.0200983 5.93 1.3699 8.12C4.3099 12.48 8.0199 16.18 12.3699 19.12C12.3699 19.12 12.3899 19.14 12.3999 19.14C13.3099 19.72 14.3199 20 15.3199 20C16.7199 20 18.0999 19.46 19.1499 18.4L19.7699 17.78C20.7299 16.81 20.7299 15.24 19.7699 14.28L17.1599 11.67L17.1699 11.68ZM18.3599 16.37L17.7399 16.99C16.5999 18.13 14.8599 18.33 13.4799 17.46C9.3399 14.66 5.8299 11.15 3.0399 7.02C2.1699 5.65 2.3599 3.9 3.5099 2.76L4.1299 2.14C4.3199 1.96 4.6199 1.95 4.7999 2.14L7.4099 4.75C7.5899 4.93 7.5899 5.24 7.4099 5.42C6.4499 6.38 6.4499 7.95 7.4099 8.92L11.5899 13.09C12.0599 13.56 12.6799 13.81 13.3399 13.81C13.9999 13.81 14.6199 13.55 15.0899 13.09C15.2799 12.9 15.5799 12.9 15.7599 13.09L18.3699 15.7C18.5599 15.89 18.5599 16.19 18.3699 16.37H18.3599Z" fill="white"/>
            <path d="M12.4399 5.5C13.7499 5.5 14.8199 6.57 14.8199 7.88C14.8199 8.43 15.2699 8.88 15.8199 8.88C16.3699 8.88 16.8199 8.43 16.8199 7.88C16.8199 5.47 14.8599 3.5 12.4399 3.5C11.8899 3.5 11.4399 3.95 11.4399 4.5C11.4399 5.05 11.8899 5.5 12.4399 5.5Z" fill="white"/>
            <path d="M13.3099 2C16.1699 2 18.4999 4.33 18.4999 7.19C18.4999 7.74 18.9499 8.19 19.4999 8.19C20.0499 8.19 20.4999 7.74 20.4999 7.19C20.4999 3.22 17.2799 0 13.3099 0C12.7599 0 12.3099 0.45 12.3099 1C12.3099 1.55 12.7599 2 13.3099 2Z" fill="white"/>
            </svg>