<svg width="8" height="12" viewBox="0 0 8 12" fill="none" xmlns="http://www.w3.org/2000/svg">
<path d="M2.26595 11.7044L7.03185 6.93849C7.15206 6.81828 7.25813 6.66978 7.32177 6.50715C7.39248 6.33744 7.42076 6.16774 7.42783 5.99096C7.4349 5.81419 7.39248 5.64448 7.32177 5.47477C7.25106 5.33335 7.15913 5.18486 7.03185 5.05758L2.26595 0.291682C1.87704 -0.0972272 1.24065 -0.0972272 0.85174 0.291682C0.462831 0.68059 0.462831 1.31699 0.85174 1.7059L5.14388 5.99803L0.85174 10.2902C0.462831 10.6791 0.462831 11.3155 0.85174 11.7044C1.24065 12.0933 1.87704 12.0933 2.26595 11.7044Z" fill="#959596"/>
</svg>
