<svg width="30" height="30" viewBox="0 0 30 30" fill="none" xmlns="http://www.w3.org/2000/svg">
<path d="M25.605 4.395C22.77 1.56 19.005 0 15 0C10.995 0 7.23 1.56 4.395 4.395C1.56 7.23 0 10.995 0 15C0 19.005 1.56 22.77 4.395 25.605C7.23 28.44 10.995 30 15 30C19.005 30 22.77 28.44 25.605 25.605C28.44 22.77 30 19.005 30 15C30 10.995 28.44 7.23 25.605 4.395ZM22.56 10.845L13.98 21.795C13.725 22.125 13.38 22.41 12.99 22.605C12.63 22.785 12.21 22.875 11.805 22.875C11.775 22.875 11.745 22.875 11.73 22.875C11.295 22.875 10.86 22.74 10.485 22.53C10.095 22.32 9.765 22.005 9.525 21.645L6.6 17.505C6.12 16.83 6.285 15.885 6.96 15.42C7.635 14.94 8.58 15.105 9.045 15.78L11.82 19.71L20.22 9C20.73 8.34 21.675 8.235 22.32 8.745C22.965 9.255 23.085 10.2 22.575 10.845H22.56Z" fill="url(#paint0_linear_474_2347)"/>
<defs>
<linearGradient id="paint0_linear_474_2347" x1="29.9572" y1="30" x2="-3.21991" y2="25.9358" gradientUnits="userSpaceOnUse">
<stop stop-color="#0096A7"/>
<stop offset="1" stop-color="#14D84D"/>
</linearGradient>
</defs>
</svg>
