<svg width="54" height="66" viewBox="0 0 54 66" fill="none" xmlns="http://www.w3.org/2000/svg">
                <path d="M36 38.732C34.1666 38.732 32.6666 40.232 32.6666 42.0654V46.732H7.33328V13.332C7.33328 12.2654 7.73328 11.2987 8.49995 10.532C9.23328 9.7987 10.2333 9.36536 11.3 9.36536H15.9999C17.8333 9.36536 19.3333 7.86536 19.3333 6.03203C19.3333 4.1987 17.8333 2.6987 15.9999 2.6987H11.3C8.46662 2.6987 5.79995 3.7987 3.79995 5.7987C1.79995 7.7987 0.699951 10.4654 0.699951 13.2987V54.732C0.699951 56.132 0.966618 57.4987 1.49995 58.7987C2.03328 60.0987 2.79995 61.2654 3.79995 62.232C4.79995 63.232 5.93328 63.9987 7.23328 64.532C8.53328 65.0654 9.89995 65.332 11.3 65.332H28.7333C30.1333 65.332 31.5 65.0654 32.7999 64.532C34.0999 63.9987 35.2666 63.232 36.2666 62.232C37.2666 61.232 38.0333 60.0987 38.5666 58.7654C39.0999 57.4654 39.3666 56.0987 39.3666 54.6987V41.9987C39.3666 40.1654 37.8666 38.6654 36.0333 38.6654L36 38.732ZM32.6666 54.7654C32.6666 55.2987 32.5666 55.7987 32.3666 56.2654C32.1666 56.7654 31.8666 57.1987 31.5 57.5654C31.1333 57.932 30.6999 58.232 30.1999 58.432C29.7333 58.632 29.2333 58.732 28.6999 58.732H11.3C10.7666 58.732 10.2666 58.632 9.79995 58.432C9.29995 58.232 8.86662 57.932 8.49995 57.5654C8.13328 57.1987 7.83328 56.7654 7.63328 56.2987C7.43328 55.7987 7.33328 55.2987 7.33328 54.7654V53.3987H32.6666V54.7654Z" fill="#BABBBC"/>
                <path d="M35.6666 0.332031C25.5666 0.332031 17.3333 8.56536 17.3333 18.6654C17.3333 28.7654 25.5666 36.9987 35.6666 36.9987C45.7666 36.9987 54 28.7654 54 18.6654C54 8.56536 45.7666 0.332031 35.6666 0.332031ZM35.6666 30.332C29.2333 30.332 24 25.0987 24 18.6654C24 12.232 29.2333 6.9987 35.6666 6.9987C42.0999 6.9987 47.3333 12.232 47.3333 18.6654C47.3333 25.0987 42.0999 30.332 35.6666 30.332Z" fill="#BABBBC"/>
                <path d="M35.8999 8.7987C34.1999 8.7987 32.7999 10.0654 32.7999 11.5987V18.332C32.7999 19.8987 34.1666 21.132 35.8999 21.132C37.6333 21.132 39 19.8654 39 18.332V11.5987C39 10.032 37.6333 8.7987 35.8999 8.7987Z" fill="#BABBBC"/>
                <path d="M35.8999 22.532C34.1999 22.532 32.7999 23.932 32.7999 25.632C32.7999 27.332 34.1999 28.732 35.8999 28.732C37.5999 28.732 39 27.332 39 25.632C39 23.932 37.5999 22.532 35.8999 22.532Z" fill="#BABBBC"/>
                </svg>